<?xml version="1.0" encoding="utf-8"?>
<!-- Generator: Adobe Illustrator 22.1.0, SVG Export Plug-In . SVG Version: 6.00 Build 0)  -->
<svg version="1.1" id="Layer_1" xmlns="http://www.w3.org/2000/svg" xmlns:xlink="http://www.w3.org/1999/xlink" x="0px" y="0px"
	 viewBox="0 0 80 40.1" style="enable-background:new 0 0 80 40.1;" xml:space="preserve">
<style type="text/css">
	.st0{fill:#FF6A13;}
	.st1{fill:none;}
</style>
<g>
	<g>
		<path class="st0" d="M33.1,6.8c-1.3-1.1-3.2-0.9-4.2,0.4l-7,8.3L14,6.1l-0.4,0l11.8,14.1L13.7,34.1l0.4,0l7.8-9.2l6.9,8.2
			c1.1,1.3,3,1.4,4.2,0.4v0c1.3-1.1,1.4-3,0.4-4.2l-7.6-9l7.6-9.1C34.6,9.8,34.4,7.9,33.1,6.8z"/>
		<polygon class="st0" points="12.8,6.1 12.3,6.1 24.2,20.2 12.5,34.1 12.9,34.1 24.6,20.2 		"/>
		<polygon class="st0" points="11.5,6.1 11.1,6.1 22.9,20.2 11.2,34.1 11.6,34.1 23.3,20.2 		"/>
		<polygon class="st0" points="10.3,6.1 9.8,6.1 21.7,20.2 10,34.1 10.4,34.1 22.1,20.2 		"/>
		<polygon class="st0" points="9,6.1 8.6,6.1 20.4,20.2 8.7,34.1 9.1,34.1 20.9,20.1 		"/>
		<polygon class="st0" points="7.8,6.1 7.3,6.1 19.2,20.2 7.5,34.1 7.9,34.1 19.6,20.1 		"/>
		<polygon class="st0" points="6.5,6.1 6.1,6.1 17.9,20.2 6.2,34.1 6.6,34.1 18.4,20.1 		"/>
		<path class="st0" d="M73.8,15.4c-0.2-4.5-3.4-8.7-8-9.1c-3.9-0.4-6.8,1.2-9.1,4.3C54,5.2,45.7,4.7,42.2,9.4
			c-0.1-0.2-0.1-0.9-0.1-1.1C41.7,7,40.5,6.1,39,6.1c-1.4,0-2.6,0.9-2.9,2.2C36,8.8,36,9.8,36,10.2c0,5.9,0,14.4,0,20.3
			c0,0.3,0,0.7,0.1,1c0.2,1.2,0.9,2,2,2.3c2.2,0.7,4.1-0.7,4.2-3c0-3.5,0-9.7,0-13.2c0-2.9,1.6-5.6,4.8-5.6c3.3,0,4.8,2.7,4.8,5.7
			c0,3.5,0,9.7,0,13.2c0,2.2,1.8,3.6,3.9,3.1c1.5-0.3,2.3-1.5,2.3-3.1c0-3.5,0-9.6,0-13.1c0-2.9,1.5-5.6,4.6-5.7
			c3.4-0.1,4.9,2.7,4.9,5.7c0,3.2,0,13.1,0.1,13.6c0.1,1.2,0.7,2,1.8,2.4c2.2,0.9,4.4-0.5,4.4-3C73.9,28.7,73.9,17.5,73.8,15.4z"/>
	</g>
	<rect class="st1" width="80" height="40.1"/>
</g>
</svg>
