<?xml version="1.0" encoding="utf-8"?>
<!-- Generator: Adobe Illustrator 25.3.1, SVG Export Plug-In . SVG Version: 6.00 Build 0)  -->
<svg version="1.1" id="Capa_1" xmlns="http://www.w3.org/2000/svg" xmlns:xlink="http://www.w3.org/1999/xlink" x="0px" y="0px"
	 viewBox="0 0 20 20" style="enable-background:new 0 0 20 20;" xml:space="preserve">
<style type="text/css">
	.st0{fill:#FF5E00;}
</style>
<path class="st0" d="M5,8.5c0-0.1,0-0.3,0.1-0.4c0-0.1,0.1-0.2,0.2-0.3c0.1-0.1,0.2-0.2,0.3-0.2c0.1,0,0.2-0.1,0.4-0.1
	c0.1,0,0.2,0,0.4,0.1c0.1,0,0.2,0.1,0.3,0.2l3,3.2l3-3.1c0.2-0.2,0.4-0.3,0.6-0.3s0.5,0.1,0.6,0.3C14,8,14,8.1,14.1,8.2
	c0,0.1,0.1,0.2,0.1,0.4c0,0.1,0,0.3-0.1,0.4c0,0.1-0.1,0.2-0.2,0.3l-3.7,3.8c-0.2,0.2-0.4,0.3-0.6,0.3S9.1,13.2,9,13.1L5.3,9.2
	C5.2,9.1,5.1,9,5.1,8.9C5,8.7,5,8.6,5,8.5z"/>
</svg>
