<svg id="Capa_1" data-name="Capa 1" xmlns="http://www.w3.org/2000/svg" viewBox="0 0 494.4 128.11"><defs><style>.cls-1{fill:#ff6c0e;}.cls-2{fill:#410099;}</style></defs><path class="cls-1" d="M146.69,94A51,51,0,0,1,135,92.64a32,32,0,0,1-9.91-4,5.34,5.34,0,0,1-2.51-3.32,5.82,5.82,0,0,1,.31-3.72,4.36,4.36,0,0,1,2.42-2.42,4.11,4.11,0,0,1,3.81.67,30.54,30.54,0,0,0,8.34,3.41,38.6,38.6,0,0,0,9.24,1.08q7.08,0,10.31-2.38a7.28,7.28,0,0,0,3.23-6.14A5.94,5.94,0,0,0,158,70.84q-2.3-1.78-7.85-3l-9.87-2.06q-16.86-3.58-16.86-17.31a17.3,17.3,0,0,1,3.14-10.31,20.42,20.42,0,0,1,8.7-6.82A32,32,0,0,1,148,29a37.93,37.93,0,0,1,10.22,1.35,29.49,29.49,0,0,1,8.7,3.94,4.91,4.91,0,0,1,2.15,3.1,5.11,5.11,0,0,1-.45,3.41,4.3,4.3,0,0,1-2.55,2.15,5,5,0,0,1-4.08-.76,25.63,25.63,0,0,0-6.73-2.7,32.28,32.28,0,0,0-7.35-.8q-6.19,0-9.69,2.6a8.1,8.1,0,0,0-3.5,6.81,6.58,6.58,0,0,0,2.15,5.16q2.16,1.94,7.36,3L154,58.29q8.88,1.88,13.23,5.92A14,14,0,0,1,171.62,75a16.78,16.78,0,0,1-3.05,10,19.78,19.78,0,0,1-8.65,6.69A33.84,33.84,0,0,1,146.69,94Z"/><path class="cls-1" d="M184.8,40.26a7,7,0,0,1-4.88-1.57,5.51,5.51,0,0,1-1.75-4.35A5.5,5.5,0,0,1,179.92,30a7.15,7.15,0,0,1,4.88-1.53q6.64,0,6.64,5.92T184.8,40.26Zm0,53.45a5.23,5.23,0,0,1-4.12-1.61,6.51,6.51,0,0,1-1.44-4.49V54.7c0-4.06,1.86-6.1,5.56-6.1s5.65,2,5.65,6.1V87.61A6.51,6.51,0,0,1,189,92.1,5.37,5.37,0,0,1,184.8,93.71Z"/><path class="cls-1" d="M206.51,93.8q-5.56,0-5.56-5.74V54.16c0-3.76,1.82-5.65,5.47-5.65s5.47,1.89,5.47,5.65v1.89a14.85,14.85,0,0,1,6.05-5.74,18.31,18.31,0,0,1,8.57-2q15.51,0,15.51,18v21.7q0,5.75-5.56,5.74t-5.65-5.74V66.9q0-5.12-1.93-7.45t-6-2.33a10.24,10.24,0,0,0-7.85,3.1,11.47,11.47,0,0,0-2.91,8.2V88.06C212.16,91.89,210.27,93.8,206.51,93.8Z"/><path class="cls-1" d="M273.86,94A27.54,27.54,0,0,1,261,91.2a19.74,19.74,0,0,1-8.29-7.89,24,24,0,0,1-2.92-12.11,24.22,24.22,0,0,1,2.83-11.93,20.73,20.73,0,0,1,7.8-8,22.06,22.06,0,0,1,11.34-2.92q9.33,0,14.76,5.92T292,70.4q0,3.31-4.3,3.31H260.58Q261.84,85.47,274,85.46a26.84,26.84,0,0,0,5.24-.58,19.18,19.18,0,0,0,5.52-2,5,5,0,0,1,3.94-.85A3.53,3.53,0,0,1,291,83.94a4.42,4.42,0,0,1,.18,3.18,5.25,5.25,0,0,1-2.56,3A23.17,23.17,0,0,1,281.44,93,33.8,33.8,0,0,1,273.86,94Zm-1.62-38a10.76,10.76,0,0,0-8,3,13.57,13.57,0,0,0-3.68,8.25h22.07c-.24-3.65-1.25-6.45-3-8.39A9.49,9.49,0,0,0,272.24,56Z"/><path class="cls-1" d="M305.43,93.8q-5.74,0-5.75-5.74V54.16c0-3.76,1.83-5.65,5.48-5.65s5.47,1.89,5.47,5.65v2.78q3.22-7.71,13.81-8.61c2.57-.29,4,1.17,4.3,4.4s-1.25,4.93-4.66,5.29l-2,.18q-11,1.08-11,11.3V88.06Q311.07,93.81,305.43,93.8Z"/><path class="cls-1" d="M353.4,110.12a48.81,48.81,0,0,1-9.37-.89,31.42,31.42,0,0,1-8.2-2.78,4.35,4.35,0,0,1-2.56-2.74,4.65,4.65,0,0,1,.32-3.18,4.35,4.35,0,0,1,2.19-2.2,3.64,3.64,0,0,1,3.19.14,26.64,26.64,0,0,0,7.48,2.55,38.06,38.06,0,0,0,6.06.58q12,0,12-11.56V84a13.84,13.84,0,0,1-5.79,5.83A17.64,17.64,0,0,1,350.09,92a19.07,19.07,0,0,1-10.32-2.74A18.26,18.26,0,0,1,333,81.61a25.69,25.69,0,0,1-2.42-11.48A25.4,25.4,0,0,1,333,58.69a18.27,18.27,0,0,1,6.81-7.62,19.16,19.16,0,0,1,10.32-2.74,17.93,17.93,0,0,1,8.61,2.07,12.9,12.9,0,0,1,5.65,5.65V54.16a5.09,5.09,0,0,1,5.56-5.65c3.7,0,5.56,1.89,5.56,5.65V88.69q0,10.66-5.65,16T353.4,110.12Zm-.26-26.63a10.29,10.29,0,0,0,8.25-3.59q3-3.59,3.05-9.77t-3.05-9.73a11.37,11.37,0,0,0-16.51,0q-3,3.54-3,9.73t3,9.77A10.3,10.3,0,0,0,353.14,83.49Z"/><path class="cls-1" d="M406,94a24,24,0,0,1-11.84-2.78,19.31,19.31,0,0,1-7.8-7.94,25.12,25.12,0,0,1-2.78-12.15A24.86,24.86,0,0,1,386.32,59a19.46,19.46,0,0,1,7.8-7.9,26.6,26.6,0,0,1,23.68,0,19.58,19.58,0,0,1,7.8,7.9,25,25,0,0,1,2.78,12.1,25.23,25.23,0,0,1-2.78,12.15,19.44,19.44,0,0,1-7.8,7.94A24,24,0,0,1,406,94Zm0-8.52A10,10,0,0,0,414,81.83q3-3.63,3.05-10.72T414,60.4a10.95,10.95,0,0,0-16.14,0q-3.06,3.54-3.05,10.71t3.05,10.72A10,10,0,0,0,406,85.46Z"/><path class="cls-1" d="M438.33,93.53a4.83,4.83,0,0,1-3.27-1.12,3.8,3.8,0,0,1-1.35-2.91,6,6,0,0,1,1.48-3.77l12.38-15.24L436.09,56.32a5.58,5.58,0,0,1-1.52-3.77A3.94,3.94,0,0,1,436,49.63a4.84,4.84,0,0,1,3.27-1.12,7.44,7.44,0,0,1,3.45.72,7.82,7.82,0,0,1,2.56,2.24L454,62.77l8.88-11.3a8.83,8.83,0,0,1,2.6-2.24,6.94,6.94,0,0,1,3.32-.72,4.66,4.66,0,0,1,3.31,1.17,4,4,0,0,1,1.3,3,5.83,5.83,0,0,1-1.57,3.77L460.39,70.49l12.47,15.24a5.28,5.28,0,0,1,1.52,3.68,4.09,4.09,0,0,1-1.38,3,4.89,4.89,0,0,1-3.37,1.16,7.22,7.22,0,0,1-5.92-3l-9.77-12.28-9.69,12.28a9,9,0,0,1-2.51,2.2A6.83,6.83,0,0,1,438.33,93.53Z"/><path class="cls-2" d="M113.49,64.35A6.07,6.07,0,0,0,105,63.08a5.75,5.75,0,0,0-2,2.78l-16.41-1A26.48,26.48,0,0,0,79,48.21a23.28,23.28,0,0,0-2.61-2.15l9.92-11.4-.16-.14a6.14,6.14,0,0,0,1.83.27,5.95,5.95,0,1,0-6.17-5.94,5.72,5.72,0,0,0,1,3.25L72.61,43.87A21.32,21.32,0,0,0,65.15,42c-.47,1.09-.93,2.18-1.41,3.31h3.33c-.12.19-.18.3-.26.4s-.17.22-.25.34A19.77,19.77,0,0,1,76,50.53a20.07,20.07,0,0,1,4.73,24.72A4.07,4.07,0,0,0,80,76.78a2.68,2.68,0,0,0,.58,1.81,1.86,1.86,0,0,0,1.69.26,4,4,0,0,0,1.46-1.59,22.29,22.29,0,0,0,2.72-8.12l16.75,1h0a6.47,6.47,0,0,0,.82,1.41,6.29,6.29,0,0,0,4,2.4,7.28,7.28,0,0,0,.93.07,5.77,5.77,0,0,0,3.52-1.19h0A6.08,6.08,0,0,0,113.49,64.35ZM88,24a4.82,4.82,0,1,1-5,4.82A4.95,4.95,0,0,1,88,24Zm23.85,48a4.7,4.7,0,0,1-3.6.9,5.21,5.21,0,0,1-4.35-5.68A4.7,4.7,0,0,1,105.71,64a4.62,4.62,0,0,1,2.85-1,5.09,5.09,0,0,1,4,2A4.94,4.94,0,0,1,111.85,72Z"/><path class="cls-1" d="M77.68,78.69a4,4,0,0,0-4.37-.63c-1-3-2.75-3.93-5.82-3.13-1.2-3-2.61-3.8-5.87-3.11,0-1.65.1-3.27.13-4.9a4,4,0,1,0-8-.2c-.15,4.72-.24,9.45-.35,14.17,0,1.82-.06,3.64-.1,5.7-.47-.34-.76-.54-1-.76-2-1.49-3.91-3-5.92-4.48a4.46,4.46,0,0,0-5.23-.17,3.11,3.11,0,0,0-.74,5q6.88,7.29,13.85,14.5a10.55,10.55,0,0,0,7,3.21c1.79.12,3.59.16,5.38.16A11.38,11.38,0,0,0,78.28,93.39c.33-3.77.55-7.55.81-11.32A3.92,3.92,0,0,0,77.68,78.69ZM77,82.21c-.25,3.54-.49,7.09-.75,10.63a9.37,9.37,0,0,1-10,9.11c-1.3,0-2.61-.08-3.91-.09a9.69,9.69,0,0,1-7.21-3.19c-2.08-2.21-4.18-4.39-6.27-6.59s-4.42-4.62-6.62-6.94C41.16,84,41.49,83,43,82.61a2.85,2.85,0,0,1,2.53.71c2.58,2,5.16,4,7.78,5.91a1.69,1.69,0,0,0,1.38.32,1.7,1.7,0,0,0,.59-1.29c.2-7,.36-14,.52-20.93a7.88,7.88,0,0,1,.05-1,2,2,0,0,1,1.91-1.63,1.86,1.86,0,0,1,1.84,1.69,6.29,6.29,0,0,1,0,1q-.15,6.56-.31,13.11c0,.26,0,.52,0,.78,0,.68.28,1.17,1,1.18s1-.48,1.06-1.15c.05-1.46.08-2.93.12-4.4,0-.29,0-.58,0-.88,0-1.55.74-2.44,1.93-2.42s1.9,1,1.87,2.47-.07,3.13-.11,4.7c0,.22,0,.45,0,.68,0,.68.35,1.15,1.07,1.14s1-.45,1-1.08c0-.85,0-1.7.07-2.55,0-1.44.81-2.31,2-2.27s1.84.94,1.82,2.32c0,.82,0,1.63-.06,2.45,0,.66.23,1.19.94,1.26s1-.39,1.15-1.06c.25-1.32,1.09-2,2.17-1.86S77.07,80.85,77,82.21Z"/><path class="cls-2" d="M42,76.88c.54,1.05,1.37,1.6,2.51,1.08a1.7,1.7,0,0,0,.87-2.44c-.22-.52-.48-1-.71-1.55A20,20,0,0,1,59.94,46c.5-1.3,1-2.61,1.48-3.91a26.85,26.85,0,0,0-6.29,1.42A22.44,22.44,0,0,0,42.29,54.09L28.94,45a6.74,6.74,0,0,0,0-1.62,6.32,6.32,0,0,0-1.11-2.89l8.77-13.15a7,7,0,0,0,.79.05,7.55,7.55,0,0,0,.83-.05,6.28,6.28,0,0,0,4.1-2.27,5.77,5.77,0,0,0,1.26-4.41h0a6.17,6.17,0,0,0-12.23,1.57,5.74,5.74,0,0,0,1.41,3.1L24.29,38.07a5.83,5.83,0,0,0-2-.11,6.19,6.19,0,0,0,.77,12.29c.23,0,.46,0,.69,0a5.71,5.71,0,0,0,3.11-1.39l13.69,9.32a29.33,29.33,0,0,0-1.17,5.49A22.66,22.66,0,0,0,42,76.88ZM36.87,16.66a5.12,5.12,0,0,1,.67,0,4.91,4.91,0,0,1,5,4.18,4.71,4.71,0,0,1-1,3.56,5.2,5.2,0,0,1-7.1.91,4.65,4.65,0,0,1-1.89-3.18A5,5,0,0,1,36.87,16.66ZM23.65,49.09a5.05,5.05,0,0,1-1.19-10h0a5,5,0,0,1,5.39,4.44,5.21,5.21,0,0,1-.38,2.66l-1.1,1.61A4.6,4.6,0,0,1,23.65,49.09Z"/><path class="cls-2" d="M58.26,54c.45-.18.9-.33,1.35-.46l1.5-4a17,17,0,0,0-2.32.46A15.91,15.91,0,0,0,47.14,61.8a15.6,15.6,0,0,0,.34,9.27,1.81,1.81,0,1,0,3.49-1c-.09-.44-.22-.88-.33-1.32A12.72,12.72,0,0,1,58.26,54Z"/><path class="cls-2" d="M64,49.41,61.1,53.2A12.78,12.78,0,0,1,75,70.07c-.58,1.77,0,2.92,1.36,3s1.8-.81,2.13-1.84c2-6.25.68-11.81-3-16.14A17.61,17.61,0,0,0,64,49.41Z"/></svg>