<?xml version="1.0" encoding="utf-8"?>
<!-- Generator: Adobe Illustrator 25.4.1, SVG Export Plug-In . SVG Version: 6.00 Build 0)  -->
<svg version="1.1" id="Capa_1" xmlns="http://www.w3.org/2000/svg" xmlns:xlink="http://www.w3.org/1999/xlink" x="0px" y="0px"
	 viewBox="0 0 494.4 128.1" style="enable-background:new 0 0 494.4 128.1;" xml:space="preserve">
<style type="text/css">
	.st0{fill:#FF6C0E;}
	.st1{fill:#FFFFFF;}
</style>
<path class="st0" d="M146.7,94c-3.9,0-7.9-0.5-11.7-1.4c-3.5-0.8-6.9-2.1-9.9-4c-1.3-0.7-2.2-1.9-2.5-3.3c-0.3-1.2-0.2-2.5,0.3-3.7
	c0.4-1.1,1.3-2,2.4-2.4c1.3-0.4,2.7-0.2,3.8,0.7c2.6,1.5,5.4,2.7,8.3,3.4c3,0.7,6.1,1.1,9.2,1.1c4.7,0,8.2-0.8,10.3-2.4
	c2-1.4,3.3-3.7,3.2-6.1c0.1-1.9-0.7-3.8-2.2-5c-1.5-1.2-4.2-2.2-7.9-3l-9.9-2.1c-11.2-2.4-16.9-8.2-16.9-17.3
	c-0.1-3.7,1-7.3,3.1-10.3c2.2-3,5.2-5.4,8.7-6.8c4-1.6,8.4-2.4,12.7-2.3c3.5,0,6.9,0.4,10.2,1.4c3.1,0.8,6,2.2,8.7,3.9
	c1.1,0.7,1.9,1.8,2.1,3.1c0.2,1.2,0.1,2.4-0.4,3.4c-0.5,1-1.4,1.8-2.6,2.2c-1.4,0.3-2.9,0.1-4.1-0.8c-2.1-1.2-4.4-2.1-6.7-2.7
	c-2.4-0.5-4.9-0.8-7.4-0.8c-4.1,0-7.4,0.9-9.7,2.6c-2.2,1.5-3.5,4.1-3.5,6.8c-0.1,2,0.7,3.8,2.1,5.2c1.4,1.3,3.9,2.3,7.4,3l9.8,2
	c5.9,1.3,10.3,3.2,13.2,5.9c3,2.8,4.6,6.7,4.4,10.8c0.1,3.6-1,7.1-3.1,10c-2.2,3-5.2,5.3-8.6,6.7C155.7,93.3,151.2,94.1,146.7,94z"
	/>
<path class="st0" d="M184.8,40.3c-1.8,0.1-3.5-0.4-4.9-1.6c-1.2-1.1-1.8-2.7-1.8-4.3c-0.1-1.6,0.5-3.2,1.8-4.3
	c1.4-1.1,3.1-1.6,4.9-1.5c4.4,0,6.6,2,6.6,5.9S189.2,40.3,184.8,40.3z M184.8,93.7c-1.5,0.1-3.1-0.5-4.1-1.6c-1-1.3-1.5-2.9-1.4-4.5
	V54.7c0-4.1,1.9-6.1,5.6-6.1s5.6,2,5.6,6.1v32.9c0.1,1.6-0.4,3.2-1.4,4.5C187.9,93.2,186.4,93.8,184.8,93.7z"/>
<path class="st0" d="M206.5,93.8c-3.7,0-5.6-1.9-5.6-5.7V54.2c0-3.8,1.8-5.7,5.5-5.7s5.5,1.9,5.5,5.7V56c1.4-2.5,3.5-4.4,6.1-5.7
	c2.7-1.4,5.6-2,8.6-2c10.3,0,15.5,6,15.5,18V88c0,3.8-1.9,5.7-5.6,5.7s-5.6-1.9-5.6-5.7V66.9c0-3.4-0.6-5.9-1.9-7.5
	c-1.3-1.6-3.3-2.3-6-2.3c-2.9-0.1-5.8,1-7.9,3.1c-2,2.2-3.1,5.2-2.9,8.2v19.6C212.2,91.9,210.3,93.8,206.5,93.8z"/>
<path class="st0" d="M273.9,94c-4.4,0.1-8.9-0.8-12.9-2.8c-3.5-1.8-6.4-4.5-8.3-7.9c-2-3.7-3-7.9-2.9-12.1
	c-0.1-4.2,0.9-8.3,2.8-11.9c1.8-3.3,4.5-6.1,7.8-8c3.4-2,7.4-3,11.3-2.9c6.2,0,11.1,2,14.8,5.9s5.4,9.3,5.5,16.1
	c0,2.2-1.4,3.3-4.3,3.3h-27.1c0.8,7.8,5.3,11.8,13.4,11.8c1.8,0,3.5-0.2,5.2-0.6c1.9-0.4,3.8-1.1,5.5-2c1.1-0.8,2.6-1.1,3.9-0.8
	c1,0.3,1.9,1,2.3,1.9c0.5,1,0.5,2.1,0.2,3.2c-0.4,1.3-1.3,2.4-2.6,3c-2.2,1.4-4.6,2.3-7.2,2.9C279,93.6,276.4,94,273.9,94z
	 M272.2,56c-3-0.1-5.9,0.9-8,3c-2.1,2.2-3.4,5.2-3.7,8.2h22.1c-0.2-3.7-1.2-6.5-3-8.4C277.7,56.9,275,55.8,272.2,56z"/>
<path class="st0" d="M305.4,93.8c-3.8,0-5.7-1.9-5.8-5.7V54.2c0-3.8,1.8-5.7,5.5-5.7s5.5,1.9,5.5,5.7v2.8c2.1-5.1,6.8-8,13.8-8.6
	c2.6-0.3,4,1.2,4.3,4.4s-1.2,4.9-4.7,5.3l-2,0.2c-7.3,0.7-11,4.5-11,11.3v18.6C311.1,91.9,309.2,93.8,305.4,93.8z"/>
<path class="st0" d="M353.4,110.1c-3.1,0-6.3-0.3-9.4-0.9c-2.8-0.5-5.6-1.5-8.2-2.8c-1.2-0.5-2.2-1.5-2.6-2.7
	c-0.3-1.1-0.2-2.2,0.3-3.2c0.4-1,1.2-1.8,2.2-2.2c1-0.4,2.2-0.4,3.2,0.1c2.4,1.2,4.9,2.1,7.5,2.6c2,0.4,4,0.5,6.1,0.6
	c8,0,12-3.9,12-11.6v-6c-1.3,2.5-3.3,4.5-5.8,5.8c-2.6,1.4-5.6,2.2-8.6,2.2c-3.6,0.1-7.2-0.9-10.3-2.7c-2.9-1.9-5.3-4.5-6.8-7.7
	c-1.7-3.6-2.5-7.5-2.4-11.5c-0.1-3.9,0.7-7.9,2.4-11.4c1.5-3.1,3.9-5.8,6.8-7.6c3.1-1.9,6.7-2.8,10.3-2.7c3,0,6,0.7,8.6,2.1
	c2.4,1.2,4.4,3.2,5.6,5.7v-1.9c-0.3-2.8,1.7-5.3,4.5-5.6c0.4,0,0.7,0,1.1,0c3.7,0,5.6,1.9,5.6,5.7v34.5c0,7.1-1.9,12.4-5.6,16
	S360.6,110.1,353.4,110.1z M353.1,83.5c3.2,0.1,6.2-1.2,8.2-3.6c2-2.4,3-5.7,3-9.8s-1-7.4-3-9.7c-4.3-4.6-11.5-4.8-16.1-0.4
	c-0.1,0.1-0.3,0.3-0.4,0.4c-2,2.4-3,5.6-3,9.7s1,7.4,3,9.8C346.9,82.3,350,83.6,353.1,83.5L353.1,83.5z"/>
<path class="st0" d="M406,94c-4.1,0.1-8.2-0.9-11.8-2.8c-3.3-1.8-6-4.6-7.8-7.9c-1.9-3.8-2.9-7.9-2.8-12.2
	c-0.1-4.2,0.8-8.4,2.7-12.1c1.8-3.3,4.5-6.1,7.8-7.9c7.5-3.7,16.2-3.7,23.7,0c3.3,1.8,6,4.6,7.8,7.9c1.9,3.7,2.9,7.9,2.8,12.1
	c0.1,4.2-0.9,8.4-2.8,12.2c-1.8,3.4-4.5,6.1-7.8,7.9C414.2,93.1,410.1,94.1,406,94z M406,85.5c3.1,0.1,6-1.3,8-3.6c2-2.4,3-6,3-10.7
	c0-4.7-1-8.3-3-10.7c-4.1-4.5-11-4.8-15.5-0.7c-0.2,0.2-0.5,0.4-0.7,0.7c-2,2.4-3.1,5.9-3,10.7c0,4.8,1,8.4,3,10.7
	C399.9,84.2,402.9,85.6,406,85.5L406,85.5z"/>
<path class="st0" d="M438.3,93.5c-1.2,0-2.4-0.4-3.3-1.1c-0.9-0.7-1.4-1.8-1.4-2.9c0-1.4,0.6-2.7,1.5-3.8l12.4-15.2l-11.5-14.2
	c-1-1-1.5-2.4-1.5-3.8c0-1.1,0.6-2.2,1.4-2.9c0.9-0.8,2.1-1.2,3.3-1.1c1.2,0,2.4,0.2,3.5,0.7c1,0.5,1.9,1.3,2.6,2.2l8.7,11.3
	l8.9-11.3c0.7-0.9,1.6-1.7,2.6-2.2c1-0.5,2.2-0.8,3.3-0.7c1.2-0.1,2.4,0.4,3.3,1.2c0.8,0.8,1.3,1.9,1.3,3c-0.1,1.4-0.6,2.7-1.6,3.8
	l-11.4,14l12.5,15.2c1,1,1.5,2.3,1.5,3.7c0,1.1-0.5,2.2-1.4,3c-0.9,0.8-2.1,1.2-3.4,1.2c-2.3,0-4.6-1.1-5.9-3l-9.8-12.3l-9.7,12.3
	c-0.7,0.9-1.5,1.6-2.5,2.2C440.7,93.3,439.5,93.6,438.3,93.5z"/>
<path class="st1" d="M113.5,64.3c-2-2.7-5.8-3.3-8.5-1.3c0,0,0,0,0,0c-0.9,0.7-1.6,1.7-2,2.8l-16.4-1c-0.5-6.3-3.2-12.2-7.6-16.7
	c-0.8-0.8-1.7-1.5-2.6-2.2l9.9-11.4l-0.2-0.1c0.6,0.2,1.2,0.3,1.8,0.3c3.3-0.1,5.8-2.9,5.7-6.2s-2.9-5.8-6.2-5.7
	c-3.2,0.1-5.7,2.7-5.7,6c0,1.2,0.3,2.3,1,3.3L72.6,43.9c-2.4-1.1-4.9-1.7-7.5-1.9c-0.5,1.1-0.9,2.2-1.4,3.3h3.3
	c-0.1,0.2-0.2,0.3-0.3,0.4s-0.2,0.2-0.2,0.3c3.5,0.6,6.8,2.2,9.4,4.5c7.2,6.1,9.2,16.4,4.7,24.7c-0.3,0.5-0.6,1-0.7,1.5
	c0,0.7,0.2,1.3,0.6,1.8c0.5,0.4,1.1,0.5,1.7,0.3c0.6-0.4,1.1-0.9,1.5-1.6c1.4-2.5,2.3-5.3,2.7-8.1l16.8,1l0,0c0.2,0.5,0.5,1,0.8,1.4
	c1,1.3,2.4,2.1,4,2.4c0.3,0,0.6,0.1,0.9,0.1c1.3,0,2.5-0.4,3.5-1.2l0,0C115.1,70.8,115.5,67,113.5,64.3z M88,24
	c2.7,0.1,4.7,2.3,4.6,5s-2.3,4.7-5,4.6c-2.6-0.1-4.6-2.2-4.6-4.8C83.1,26.1,85.3,24,88,24z M111.8,72c-1,0.8-2.3,1.1-3.6,0.9
	c-2.7-0.4-4.6-2.9-4.3-5.7c0.1-1.3,0.8-2.4,1.8-3.2c0.8-0.6,1.8-1,2.8-1c1.6,0,3,0.8,4,2C114.3,67.1,114,70.2,111.8,72
	C111.9,72,111.9,72,111.8,72z"/>
<path class="st0" d="M77.7,78.7c-1.2-1.1-2.9-1.3-4.4-0.6c-1-3-2.8-3.9-5.8-3.1c-1.2-3-2.6-3.8-5.9-3.1c0-1.7,0.1-3.3,0.1-4.9
	c0.1-2.2-1.7-4-3.9-4.1s-4,1.7-4.1,3.9c-0.2,4.7-0.2,9.4-0.3,14.2c0,1.8-0.1,3.6-0.1,5.7c-0.5-0.3-0.8-0.5-1-0.8
	c-2-1.5-3.9-3-5.9-4.5c-1.5-1.2-3.6-1.2-5.2-0.2c-1.5,0.8-2.1,2.7-1.3,4.2c0.2,0.3,0.4,0.6,0.6,0.8c4.6,4.9,9.2,9.7,13.8,14.5
	c1.8,1.9,4.3,3.1,7,3.2c1.8,0.1,3.6,0.2,5.4,0.2c6.1,0.2,11.3-4.6,11.6-10.7c0.3-3.8,0.6-7.6,0.8-11.3
	C79.2,80.8,78.7,79.5,77.7,78.7z M77,82.2c-0.2,3.5-0.5,7.1-0.8,10.6c-0.1,5.2-4.4,9.3-9.6,9.1c-0.1,0-0.3,0-0.4,0
	c-1.3,0-2.6-0.1-3.9-0.1c-2.7,0-5.4-1.2-7.2-3.2c-2.1-2.2-4.2-4.4-6.3-6.6s-4.4-4.6-6.6-6.9C41.2,84,41.5,83,43,82.6
	c0.9-0.2,1.9,0.1,2.5,0.7c2.6,2,5.2,4,7.8,5.9c0.4,0.3,0.9,0.4,1.4,0.3c0.4-0.3,0.6-0.8,0.6-1.3c0.2-7,0.4-14,0.5-20.9
	c0-0.3,0-0.7,0-1c0.2-0.9,1-1.6,1.9-1.6c1,0,1.8,0.7,1.8,1.7c0,0.3,0,0.7,0,1c-0.1,4.4-0.2,8.7-0.3,13.1c0,0.3,0,0.5,0,0.8
	c0,0.7,0.3,1.2,1,1.2s1-0.5,1.1-1.2c0-1.5,0.1-2.9,0.1-4.4c0-0.3,0-0.6,0-0.9c0-1.6,0.7-2.4,1.9-2.4s1.9,1,1.9,2.5s-0.1,3.1-0.1,4.7
	c0,0.2,0,0.4,0,0.7c0,0.7,0.3,1.2,1.1,1.1s1-0.4,1-1.1c0-0.8,0-1.7,0.1-2.6c0-1.4,0.8-2.3,2-2.3s1.8,0.9,1.8,2.3
	c0,0.8,0,1.6-0.1,2.4c0,0.7,0.2,1.2,0.9,1.3s1-0.4,1.2-1.1c0.2-1.3,1.1-2,2.2-1.9S77.1,80.8,77,82.2z"/>
<path class="st1" d="M42,76.9c0.5,1.1,1.4,1.6,2.5,1.1c0.9-0.3,1.3-1.3,1-2.2c0-0.1-0.1-0.2-0.1-0.2c-0.2-0.5-0.5-1-0.7-1.6
	c-4.5-10.1,0-21.9,10.1-26.4c1.7-0.7,3.4-1.3,5.2-1.5c0.5-1.3,1-2.6,1.5-3.9c-2.1,0.2-4.3,0.7-6.3,1.4c-5.5,1.8-10.1,5.5-12.8,10.6
	L28.9,45c0.1-0.5,0.1-1.1,0-1.6c-0.1-1-0.5-2-1.1-2.9l8.8-13.1c0.3,0,0.5,0,0.8,0c0.3,0,0.6,0,0.8,0c1.6-0.2,3.1-1,4.1-2.3
	c1-1.2,1.5-2.8,1.3-4.4l0,0c-0.6-3.4-3.8-5.6-7.1-5.1c-3.2,0.5-5.4,3.4-5.1,6.6c0.1,1.2,0.6,2.2,1.4,3.1l-8.5,12.7
	c-0.7-0.2-1.3-0.2-2-0.1c-3.4,0.6-5.6,3.8-5.1,7.1c0.5,2.9,2.9,5,5.9,5.2c0.2,0,0.5,0,0.7,0c1.2-0.1,2.2-0.6,3.1-1.4l13.7,9.3
	c-0.6,1.8-1,3.6-1.2,5.5C38.9,68.2,39.8,72.8,42,76.9z M36.9,16.7c0.2,0,0.4,0,0.7,0c2.5-0.1,4.6,1.7,5,4.2c0.2,1.3-0.2,2.6-1,3.6
	c-1.7,2.1-4.9,2.5-7.1,0.9c-1-0.8-1.7-1.9-1.9-3.2C32.3,19.4,34.2,17,36.9,16.7z M23.6,49.1c-2.8,0.1-5.1-2-5.3-4.8
	c-0.1-2.5,1.6-4.7,4.1-5.2l0,0c2.7-0.2,5.1,1.7,5.4,4.4c0.1,0.9,0,1.8-0.4,2.7l-1.1,1.6C25.6,48.5,24.7,49,23.6,49.1z"/>
<path class="st1" d="M58.3,54c0.5-0.2,0.9-0.3,1.3-0.5l1.5-4c-0.8,0.1-1.6,0.3-2.3,0.5c-5.8,1.4-10.3,6-11.6,11.8
	c-0.8,3.1-0.7,6.3,0.3,9.3c0.3,1,1.3,1.5,2.2,1.2c1-0.3,1.5-1.3,1.2-2.2c-0.1-0.4-0.2-0.9-0.3-1.3C49.2,62.6,52.4,56.4,58.3,54z"/>
<path class="st1" d="M64,49.4l-2.9,3.8c7-1,13.5,3.8,14.5,10.8c0.3,2,0.1,4.1-0.6,6.1c-0.6,1.8,0,2.9,1.4,3s1.8-0.8,2.1-1.8
	c2-6.2,0.7-11.8-3-16.1C72.5,51.8,68.4,49.8,64,49.4z"/>
</svg>
