<svg id="Logo_XM" data-name="Logo XM" xmlns="http://www.w3.org/2000/svg" width="187" height="129.26" viewBox="0 0 187 129.26">
  <path id="Path_883" data-name="Path 883" d="M127.6,2.229A8.4,8.4,0,0,0,115.88,3.252L96.613,25.964,74.761.227H73.575L106.3,38.77l-32.576,38.4,1.17,0L96.606,51.583l19.028,22.475a8.39,8.39,0,0,0,11.719,1.015,8.206,8.206,0,0,0,1.031-11.605L107.478,38.774,128.63,13.841A8.221,8.221,0,0,0,127.6,2.229" transform="translate(-53.341 -0.165)" fill="#ff6a13"/>
  <path id="Path_884" data-name="Path 884" d="M48.56,77.163l1.175,0,32.578-38.4L49.594.22H48.406L81.14,38.76Z" transform="translate(-35.094 -0.159)" fill="#ff6a13"/>
  <path id="Path_885" data-name="Path 885" d="M23.412,77.143h1.175L57.165,38.737,24.445.2,23.256.2,55.981,38.74Z" transform="translate(-16.861 -0.145)" fill="#ff6a13"/>
  <path id="Path_886" data-name="Path 886" d="M.982,76.944H2.157L34.735,38.538,2.014,0,.826,0,33.551,38.54Z" transform="translate(-0.599)" fill="#ff6a13"/>
  <path id="Path_887" data-name="Path 887" d="M403.571,26.128C403.118,13.7,394.206,2.4,381.35,1.06,372.067.093,364.14,2.7,358.2,10.167c-.679.838-1.28,1.734-1.955,2.645-7.615-14.653-30.643-15.912-40.2-3.074A8.731,8.731,0,0,0,307.495.4a8.455,8.455,0,0,0-8.615,8.71l0,59.67a8.586,8.586,0,0,0,17.172,0s.037-36.176.039-36.618c.083-7.836,4.535-15.331,13.158-15.362,9.244-.043,13.162,7.384,13.249,15.541.1,9.635.1,36.437.1,36.437a8.585,8.585,0,0,0,17.17,0s.079-26.658.136-36.238c.045-7.827,4.039-15.488,12.812-15.724,9.5-.269,13.6,7.379,13.668,15.752.054,5.573.064,36.212.064,36.212a8.584,8.584,0,0,0,17.168,0s.185-36.9-.039-42.659" transform="translate(-216.682 -0.292)" fill="#ff6a13"/>
  <path id="Path_888" data-name="Path 888" d="M14.528,326.672a3.315,3.315,0,0,0-.651-2.1A4.724,4.724,0,0,0,12,323.2a17.712,17.712,0,0,0-3.188-.982,9.033,9.033,0,0,1-2.626-.9,1.547,1.547,0,0,1-.772-1.39,1.943,1.943,0,0,1,.872-1.688,4.09,4.09,0,0,1,2.372-.607,5.958,5.958,0,0,1,2.085.32,7.48,7.48,0,0,1,1.754.982,3.2,3.2,0,0,0,.5.243,1.219,1.219,0,0,0,.408.066.817.817,0,0,0,.651-.342,1.244,1.244,0,0,0,.276-.805,1.258,1.258,0,0,0-.122-.585,1.666,1.666,0,0,0-.408-.474,7.7,7.7,0,0,0-5.14-1.677,7.623,7.623,0,0,0-3.1.607,5.092,5.092,0,0,0-2.151,1.687,4.109,4.109,0,0,0-.772,2.449,3.653,3.653,0,0,0,.618,2.184,4.45,4.45,0,0,0,1.831,1.412,15.886,15.886,0,0,0,3.155.971,10.685,10.685,0,0,1,2.681.871,1.414,1.414,0,0,1,.805,1.291,1.841,1.841,0,0,1-.861,1.643,4.515,4.515,0,0,1-2.471.563,8.017,8.017,0,0,1-2.294-.309,6.609,6.609,0,0,1-1.986-.993,1.793,1.793,0,0,0-.9-.309.817.817,0,0,0-.651.342,1.34,1.34,0,0,0,.232,1.864,7.06,7.06,0,0,0,2.46,1.225,11.153,11.153,0,0,0,3.21.452,8.047,8.047,0,0,0,3.166-.585,4.954,4.954,0,0,0,2.14-1.632,4,4,0,0,0,.761-2.415" transform="translate(-1.656 -228.629)" fill="#ff6a13"/>
  <path id="Path_889" data-name="Path 889" d="M63.811,332.6a1.389,1.389,0,0,0-.993.353,1.239,1.239,0,0,0-.375.949v4.92a2.877,2.877,0,0,1-.695,2.019,2.374,2.374,0,0,1-1.842.761,1.8,1.8,0,0,1-1.456-.552,2.6,2.6,0,0,1-.463-1.7V333.9a1.24,1.24,0,0,0-.375-.949A1.421,1.421,0,0,0,56.6,332.6a1.389,1.389,0,0,0-.993.353,1.239,1.239,0,0,0-.375.949v5.427q0,4.457,3.971,4.456a3.96,3.96,0,0,0,1.942-.474,3.517,3.517,0,0,0,1.368-1.357v.551a1.181,1.181,0,0,0,.353.905,1.333,1.333,0,0,0,.949.331,1.432,1.432,0,0,0,1-.353,1.2,1.2,0,0,0,.386-.927V333.9a1.24,1.24,0,0,0-.375-.949,1.421,1.421,0,0,0-1.015-.353" transform="translate(-40.041 -241.133)" fill="#ff6a13"/>
  <path id="Path_890" data-name="Path 890" d="M114.736,332.441a4.178,4.178,0,0,0-2.14.552,3.641,3.641,0,0,0-1.434,1.478,3.161,3.161,0,0,0-3.243-2.03,4.007,4.007,0,0,0-1.953.463,3.457,3.457,0,0,0-1.357,1.346v-.53a1.155,1.155,0,0,0-.364-.916,1.37,1.37,0,0,0-.938-.32,1.5,1.5,0,0,0-.993.331,1.165,1.165,0,0,0-.4.948V342.3a1.242,1.242,0,0,0,.386.982,1.428,1.428,0,0,0,.982.342,1.47,1.47,0,0,0,.993-.342,1.225,1.225,0,0,0,.4-.982v-4.92a3.017,3.017,0,0,1,.629-2.019,2.128,2.128,0,0,1,1.71-.739,1.61,1.61,0,0,1,1.313.518,2.729,2.729,0,0,1,.43,1.732V342.3a1.225,1.225,0,0,0,.4.982,1.47,1.47,0,0,0,.993.342,1.428,1.428,0,0,0,.982-.342,1.243,1.243,0,0,0,.386-.982v-4.92a2.981,2.981,0,0,1,.64-2.019,2.161,2.161,0,0,1,1.721-.739,1.61,1.61,0,0,1,1.313.518,2.731,2.731,0,0,1,.43,1.732V342.3a1.242,1.242,0,0,0,.386.982,1.428,1.428,0,0,0,.982.342,1.46,1.46,0,0,0,1-.342,1.243,1.243,0,0,0,.386-.982v-5.427a5.011,5.011,0,0,0-.938-3.386,3.44,3.44,0,0,0-2.7-1.048" transform="translate(-73.89 -241.017)" fill="#ff6a13"/>
  <path id="Path_891" data-name="Path 891" d="M175.523,332.442a9.539,9.539,0,0,0-2.107.242,7.224,7.224,0,0,0-1.842.662,1.782,1.782,0,0,0-.629.519,1.131,1.131,0,0,0-.187.651,1.09,1.09,0,0,0,.254.75.828.828,0,0,0,.651.287,2.2,2.2,0,0,0,.838-.287q.9-.353,1.566-.541a4.768,4.768,0,0,1,1.3-.187,1.972,1.972,0,0,1,1.5.5,2.259,2.259,0,0,1,.463,1.577v.507h-.552a17.977,17.977,0,0,0-3.773.309,3.646,3.646,0,0,0-1.974.993,2.723,2.723,0,0,0-.607,1.875,3.063,3.063,0,0,0,.507,1.721,3.49,3.49,0,0,0,1.39,1.214,4.334,4.334,0,0,0,1.964.441,3.545,3.545,0,0,0,1.864-.485,2.883,2.883,0,0,0,1.18-1.346v.485a1.232,1.232,0,0,0,.364.927,1.288,1.288,0,0,0,.938.353,1.337,1.337,0,0,0,.971-.342,1.245,1.245,0,0,0,.353-.938v-5.383a4.662,4.662,0,0,0-1.092-3.386,4.493,4.493,0,0,0-3.342-1.114m1.809,6.6a2.673,2.673,0,0,1-.695,1.908,2.355,2.355,0,0,1-1.8.739,1.75,1.75,0,0,1-1.225-.452,1.5,1.5,0,0,1-.5-1.158,1.179,1.179,0,0,1,.353-.9,2.222,2.222,0,0,1,1.169-.463,15.214,15.214,0,0,1,2.294-.132h.4Z" transform="translate(-123.558 -241.017)" fill="#ff6a13"/>
  <path id="Path_892" data-name="Path 892" d="M228.09,332.441a4.178,4.178,0,0,0-2.14.552,3.641,3.641,0,0,0-1.434,1.478,3.161,3.161,0,0,0-3.243-2.03,4.007,4.007,0,0,0-1.953.463,3.457,3.457,0,0,0-1.357,1.346v-.53a1.155,1.155,0,0,0-.364-.916,1.37,1.37,0,0,0-.938-.32,1.5,1.5,0,0,0-.993.331,1.165,1.165,0,0,0-.4.948V342.3a1.242,1.242,0,0,0,.386.982,1.428,1.428,0,0,0,.982.342,1.471,1.471,0,0,0,.993-.342,1.225,1.225,0,0,0,.4-.982v-4.92a3.017,3.017,0,0,1,.629-2.019,2.128,2.128,0,0,1,1.71-.739,1.61,1.61,0,0,1,1.313.518,2.729,2.729,0,0,1,.43,1.732V342.3a1.225,1.225,0,0,0,.4.982,1.47,1.47,0,0,0,.993.342,1.428,1.428,0,0,0,.982-.342,1.243,1.243,0,0,0,.386-.982v-4.92a2.981,2.981,0,0,1,.64-2.019,2.161,2.161,0,0,1,1.721-.739,1.61,1.61,0,0,1,1.313.518,2.731,2.731,0,0,1,.43,1.732V342.3a1.243,1.243,0,0,0,.386.982,1.428,1.428,0,0,0,.982.342,1.46,1.46,0,0,0,1-.342,1.243,1.243,0,0,0,.386-.982v-5.427a5.011,5.011,0,0,0-.938-3.386,3.44,3.44,0,0,0-2.7-1.048" transform="translate(-156.07 -241.017)" fill="#ff6a13"/>
  <path id="Path_893" data-name="Path 893" d="M291.555,333.125a6.495,6.495,0,0,0-5.8,0,4.749,4.749,0,0,0-1.931,1.953,6.159,6.159,0,0,0-.684,2.967,6.223,6.223,0,0,0,.684,2.978,4.724,4.724,0,0,0,1.931,1.964,6.495,6.495,0,0,0,5.8,0,4.66,4.66,0,0,0,1.919-1.964,6.3,6.3,0,0,0,.673-2.978,6.24,6.24,0,0,0-.673-2.967,4.684,4.684,0,0,0-1.919-1.953m-.871,7.523a2.473,2.473,0,0,1-2.052.882,2.447,2.447,0,0,1-2.03-.882,5.1,5.1,0,0,1,.011-5.2,2.465,2.465,0,0,1,2.04-.893,2.434,2.434,0,0,1,2.03.893,5.133,5.133,0,0,1,0,5.2" transform="translate(-205.272 -241.017)" fill="#ff6a13"/>
  <path id="Path_894" data-name="Path 894" d="M335.045,341.267a2.832,2.832,0,0,1-1.445.309,5.254,5.254,0,0,1-1.489-.176,9.567,9.567,0,0,1-1.29-.508,2.446,2.446,0,0,0-1.037-.353.762.762,0,0,0-.6.276,1.044,1.044,0,0,0-.243.717,1.315,1.315,0,0,0,.706,1.191,7.092,7.092,0,0,0,3.883.949,5.534,5.534,0,0,0,3.32-.9,2.829,2.829,0,0,0,1.246-2.4,2.882,2.882,0,0,0-.364-1.522,2.713,2.713,0,0,0-1.2-.993,10.707,10.707,0,0,0-2.317-.706,6.926,6.926,0,0,1-1.875-.574.917.917,0,0,1-.485-.838,1.046,1.046,0,0,1,.474-.9,2.221,2.221,0,0,1,1.291-.331,3.441,3.441,0,0,1,1.147.166,9.206,9.206,0,0,1,1.1.5,6.319,6.319,0,0,0,.585.3,1.191,1.191,0,0,0,.474.1.743.743,0,0,0,.6-.3,1.133,1.133,0,0,0,.243-.739,1.333,1.333,0,0,0-.706-1.169,5.451,5.451,0,0,0-1.545-.673,6.847,6.847,0,0,0-1.787-.231,5.742,5.742,0,0,0-2.284.43,3.717,3.717,0,0,0-1.577,1.213,2.9,2.9,0,0,0-.574,1.754,2.5,2.5,0,0,0,.849,2.008,6.306,6.306,0,0,0,2.813,1.125,15.963,15.963,0,0,1,1.644.43,1.928,1.928,0,0,1,.75.408.829.829,0,0,1,.21.6.957.957,0,0,1-.518.86" transform="translate(-238.482 -241.017)" fill="#ff6a13"/>
  <path id="Path_895" data-name="Path 895" d="M397.369,343.417a7.354,7.354,0,0,0,1.7-.673,1.339,1.339,0,0,0,.816-1.147,1.193,1.193,0,0,0-.232-.772.743.743,0,0,0-.607-.287,2.438,2.438,0,0,0-.971.353,12.23,12.23,0,0,1-1.224.485,4.013,4.013,0,0,1-1.247.177,2.9,2.9,0,0,1-2.118-.717,3.472,3.472,0,0,1-.86-2.239h6.509q.838,0,.838-.948a6,6,0,0,0-.6-2.757,4.345,4.345,0,0,0-1.676-1.81,4.892,4.892,0,0,0-2.538-.64,5.281,5.281,0,0,0-2.724.706,4.821,4.821,0,0,0-1.865,1.986,6.3,6.3,0,0,0-.662,2.934,5.5,5.5,0,0,0,1.522,4.1,5.62,5.62,0,0,0,4.125,1.5,7.016,7.016,0,0,0,1.809-.254m-3.938-8.328a2.368,2.368,0,0,1,1.8-.706,2.182,2.182,0,0,1,1.72.695,3.144,3.144,0,0,1,.662,2.041h-4.986a3.334,3.334,0,0,1,.805-2.03" transform="translate(-282.683 -241.017)" fill="#ff6a13"/>
  <path id="Path_896" data-name="Path 896" d="M440.059,334.625a1.824,1.824,0,0,1,1.489.574,2.862,2.862,0,0,1,.474,1.831V342.3a1.269,1.269,0,0,0,.375.971,1.422,1.422,0,0,0,1.015.353,1.38,1.38,0,0,0,1-.353,1.289,1.289,0,0,0,.364-.971v-5.427a5,5,0,0,0-.949-3.331,3.605,3.605,0,0,0-2.89-1.1,4.447,4.447,0,0,0-2.1.486,3.725,3.725,0,0,0-1.478,1.39v-.6a1.168,1.168,0,0,0-.364-.893,1.314,1.314,0,0,0-.937-.342,1.418,1.418,0,0,0-1.014.353,1.212,1.212,0,0,0-.375.927V342.3a1.289,1.289,0,0,0,.364.971,1.38,1.38,0,0,0,1,.353,1.423,1.423,0,0,0,1.015-.353,1.27,1.27,0,0,0,.375-.971v-4.92a2.786,2.786,0,0,1,.717-2.008,2.52,2.52,0,0,1,1.909-.75" transform="translate(-315.136 -241.017)" fill="#ff6a13"/>
  <path id="Path_897" data-name="Path 897" d="M486.9,343.417a7.354,7.354,0,0,0,1.7-.673,1.339,1.339,0,0,0,.816-1.147,1.193,1.193,0,0,0-.232-.772.743.743,0,0,0-.607-.287,2.438,2.438,0,0,0-.971.353,12.227,12.227,0,0,1-1.224.485,4.013,4.013,0,0,1-1.247.177,2.9,2.9,0,0,1-2.118-.717,3.472,3.472,0,0,1-.86-2.239h6.509q.838,0,.838-.948a6,6,0,0,0-.6-2.757,4.344,4.344,0,0,0-1.676-1.81,4.892,4.892,0,0,0-2.537-.64,5.281,5.281,0,0,0-2.725.706,4.822,4.822,0,0,0-1.865,1.986,6.3,6.3,0,0,0-.662,2.934,5.5,5.5,0,0,0,1.522,4.1,5.62,5.62,0,0,0,4.125,1.5,7.016,7.016,0,0,0,1.809-.254m-3.938-8.328a2.368,2.368,0,0,1,1.8-.706,2.182,2.182,0,0,1,1.72.695,3.145,3.145,0,0,1,.662,2.041h-4.986a3.334,3.334,0,0,1,.805-2.03" transform="translate(-347.589 -241.017)" fill="#ff6a13"/>
  <path id="Path_898" data-name="Path 898" d="M530.226,332.587l-.309.022a3.816,3.816,0,0,0-1.842.6,3.262,3.262,0,0,0-1.247,1.5v-.882a1.174,1.174,0,0,0-.353-.916,1.328,1.328,0,0,0-.926-.32,1.42,1.42,0,0,0-.96.331,1.181,1.181,0,0,0-.386.948V342.4a1.243,1.243,0,0,0,.386.982,1.427,1.427,0,0,0,.982.342,1.472,1.472,0,0,0,.993-.342,1.226,1.226,0,0,0,.4-.982v-4.633a2.883,2.883,0,0,1,.607-1.875,2.679,2.679,0,0,1,1.909-.883l.662-.067a1.76,1.76,0,0,0,1.037-.375,1.2,1.2,0,0,0,.287-.882,1.08,1.08,0,0,0-.331-.861,1.19,1.19,0,0,0-.9-.243" transform="translate(-380.042 -241.118)" fill="#ff6a13"/>
  <path id="Path_899" data-name="Path 899" d="M557.476,347.642a5.953,5.953,0,0,0,4.17-1.3,4.964,4.964,0,0,0,1.412-3.838v-8.715a1.24,1.24,0,0,0-.375-.949,1.572,1.572,0,0,0-1.986,0,1.212,1.212,0,0,0-.375.927v.574a3.364,3.364,0,0,0-1.412-1.4,4.409,4.409,0,0,0-2.118-.5,4.73,4.73,0,0,0-2.515.673,4.509,4.509,0,0,0-1.71,1.9,6.246,6.246,0,0,0-.607,2.813,6.09,6.09,0,0,0,.618,2.8,4.625,4.625,0,0,0,1.71,1.887,4.677,4.677,0,0,0,2.5.673,4.419,4.419,0,0,0,2.118-.5,3.369,3.369,0,0,0,1.412-1.4V342.7q0,2.824-2.89,2.824a5.385,5.385,0,0,1-1.445-.176,12.78,12.78,0,0,1-1.423-.508q-.309-.132-.6-.231a1.535,1.535,0,0,0-.486-.1.741.741,0,0,0-.606.287,1.191,1.191,0,0,0-.232.772,1.384,1.384,0,0,0,.816,1.169,8.11,8.11,0,0,0,4.015.9m2.107-7.457a2.89,2.89,0,0,1-4.115,0,3.471,3.471,0,0,1-.75-2.36,3.507,3.507,0,0,1,.75-2.383,2.89,2.89,0,0,1,4.115,0,3.542,3.542,0,0,1,.739,2.383,3.506,3.506,0,0,1-.739,2.36" transform="translate(-400.166 -241.017)" fill="#ff6a13"/>
  <path id="Path_900" data-name="Path 900" d="M605.418,342.419V333.9a1.19,1.19,0,0,0-.4-.97,1.5,1.5,0,0,0-.993-.331,1.451,1.451,0,0,0-.982.331,1.206,1.206,0,0,0-.386.97v8.516a1.242,1.242,0,0,0,.386.982,1.427,1.427,0,0,0,.982.342,1.471,1.471,0,0,0,.993-.342,1.226,1.226,0,0,0,.4-.982" transform="translate(-436.923 -241.133)" fill="#ff6a13"/>
  <path id="Path_901" data-name="Path 901" d="M606.441,316.107l2.846-2.316a1.291,1.291,0,0,0,.6-1.059,1.1,1.1,0,0,0-.342-.805,1.126,1.126,0,0,0-.827-.342,1.46,1.46,0,0,0-1.169.662l-2.14,2.846a.82.82,0,0,0-.177.485.679.679,0,0,0,.21.5.7.7,0,0,0,.519.209.819.819,0,0,0,.485-.176" transform="translate(-438.784 -225.896)" fill="#ff6a13"/>
  <path id="Path_902" data-name="Path 902" d="M626.608,332.442a9.538,9.538,0,0,0-2.107.242,7.224,7.224,0,0,0-1.842.662,1.782,1.782,0,0,0-.629.519,1.129,1.129,0,0,0-.187.651,1.091,1.091,0,0,0,.254.75.828.828,0,0,0,.651.287,2.2,2.2,0,0,0,.838-.287q.905-.353,1.567-.541a4.765,4.765,0,0,1,1.3-.187,1.972,1.972,0,0,1,1.5.5,2.26,2.26,0,0,1,.463,1.577v.507h-.551a17.978,17.978,0,0,0-3.773.309,3.647,3.647,0,0,0-1.975.993,2.724,2.724,0,0,0-.607,1.875,3.066,3.066,0,0,0,.508,1.721,3.49,3.49,0,0,0,1.39,1.214,4.333,4.333,0,0,0,1.964.441,3.545,3.545,0,0,0,1.864-.485,2.882,2.882,0,0,0,1.18-1.346v.485a1.233,1.233,0,0,0,.364.927,1.288,1.288,0,0,0,.937.353,1.337,1.337,0,0,0,.971-.342,1.245,1.245,0,0,0,.353-.938v-5.383a4.663,4.663,0,0,0-1.092-3.386,4.494,4.494,0,0,0-3.342-1.114m1.809,6.6a2.672,2.672,0,0,1-.695,1.908,2.354,2.354,0,0,1-1.8.739,1.75,1.75,0,0,1-1.225-.452,1.5,1.5,0,0,1-.5-1.158,1.179,1.179,0,0,1,.353-.9,2.222,2.222,0,0,1,1.169-.463,15.214,15.214,0,0,1,2.294-.132h.4Z" transform="translate(-450.59 -241.017)" fill="#ff6a13"/>
  <path id="Path_903" data-name="Path 903" d="M666.741,361.08a1.506,1.506,0,0,0-1.136.474,1.645,1.645,0,0,0-.452,1.181,1.492,1.492,0,0,0,.408,1.07,1.62,1.62,0,0,0,1.048.5,3.38,3.38,0,0,1-.861,1.588.75.75,0,0,0-.221.507.692.692,0,0,0,.243.53.827.827,0,0,0,.574.221.865.865,0,0,0,.618-.287,5.054,5.054,0,0,0,1.456-3.618,2.448,2.448,0,0,0-.463-1.611,1.51,1.51,0,0,0-1.214-.552" transform="translate(-482.23 -261.78)" fill="#ff6a13"/>
  <path id="Path_904" data-name="Path 904" d="M7.766,419.239a10.952,10.952,0,0,0-2.37-.722,7.1,7.1,0,0,1-1.919-.587.939.939,0,0,1-.5-.858,1.07,1.07,0,0,1,.485-.925,2.273,2.273,0,0,1,1.321-.339,3.531,3.531,0,0,1,1.174.169,9.408,9.408,0,0,1,1.129.508,6.466,6.466,0,0,0,.6.3,1.222,1.222,0,0,0,.485.1.759.759,0,0,0,.609-.3,1.16,1.16,0,0,0,.249-.757,1.363,1.363,0,0,0-.723-1.2,5.568,5.568,0,0,0-1.58-.688,7.01,7.01,0,0,0-1.829-.237,5.88,5.88,0,0,0-2.336.44A3.8,3.8,0,0,0,.948,415.39a2.961,2.961,0,0,0-.587,1.795,2.562,2.562,0,0,0,.869,2.054,6.462,6.462,0,0,0,2.878,1.151,16.224,16.224,0,0,1,1.682.44,1.974,1.974,0,0,1,.767.418.848.848,0,0,1,.215.609.978.978,0,0,1-.53.88,2.9,2.9,0,0,1-1.479.316,5.383,5.383,0,0,1-1.524-.18,9.8,9.8,0,0,1-1.321-.52,2.5,2.5,0,0,0-1.061-.361.78.78,0,0,0-.609.283,1.069,1.069,0,0,0-.248.733,1.346,1.346,0,0,0,.722,1.219,7.256,7.256,0,0,0,3.973.97,5.664,5.664,0,0,0,3.4-.925,2.9,2.9,0,0,0,1.275-2.461A2.947,2.947,0,0,0,9,420.255a2.773,2.773,0,0,0-1.23-1.016" transform="translate(0 -299.935)" fill="#ff6a13"/>
  <path id="Path_905" data-name="Path 905" d="M52.123,413.872a1.423,1.423,0,0,0-1.016.361,1.268,1.268,0,0,0-.384.97v5.034a2.943,2.943,0,0,1-.711,2.065,2.428,2.428,0,0,1-1.885.779,1.839,1.839,0,0,1-1.49-.564,2.665,2.665,0,0,1-.474-1.739V415.2a1.269,1.269,0,0,0-.384-.97,1.455,1.455,0,0,0-1.038-.361,1.422,1.422,0,0,0-1.016.361,1.268,1.268,0,0,0-.384.97v5.554q0,4.56,4.064,4.56a4.048,4.048,0,0,0,1.987-.485,3.594,3.594,0,0,0,1.4-1.388v.564a1.2,1.2,0,0,0,.361.925,1.36,1.36,0,0,0,.971.339,1.463,1.463,0,0,0,1.027-.361,1.225,1.225,0,0,0,.4-.948V415.2a1.27,1.27,0,0,0-.384-.97,1.456,1.456,0,0,0-1.038-.361" transform="translate(-31.422 -300.053)" fill="#ff6a13"/>
  <path id="Path_906" data-name="Path 906" d="M105.464,413.708a4.282,4.282,0,0,0-2.19.564,3.735,3.735,0,0,0-1.467,1.513,3.235,3.235,0,0,0-3.319-2.077,4.1,4.1,0,0,0-2,.474,3.537,3.537,0,0,0-1.388,1.377v-.542a1.181,1.181,0,0,0-.373-.937,1.4,1.4,0,0,0-.96-.327,1.532,1.532,0,0,0-1.016.339,1.192,1.192,0,0,0-.406.97V423.8a1.27,1.27,0,0,0,.395,1,1.46,1.46,0,0,0,1,.35,1.5,1.5,0,0,0,1.016-.35,1.251,1.251,0,0,0,.406-1v-5.034a3.088,3.088,0,0,1,.643-2.065,2.178,2.178,0,0,1,1.75-.757,1.648,1.648,0,0,1,1.343.53,2.794,2.794,0,0,1,.44,1.772V423.8a1.252,1.252,0,0,0,.406,1,1.5,1.5,0,0,0,1.016.35,1.46,1.46,0,0,0,1-.35,1.271,1.271,0,0,0,.395-1v-5.034a3.05,3.05,0,0,1,.655-2.065,2.211,2.211,0,0,1,1.761-.757,1.647,1.647,0,0,1,1.343.53,2.793,2.793,0,0,1,.44,1.772V423.8a1.269,1.269,0,0,0,.4,1,1.458,1.458,0,0,0,1,.35,1.492,1.492,0,0,0,1.027-.35,1.271,1.271,0,0,0,.4-1v-5.554a5.127,5.127,0,0,0-.96-3.465,3.52,3.52,0,0,0-2.765-1.072" transform="translate(-66.951 -299.935)" fill="#ff6a13"/>
  <path id="Path_907" data-name="Path 907" d="M168.9,413.708a9.709,9.709,0,0,0-2.156.249,7.367,7.367,0,0,0-1.885.677,1.818,1.818,0,0,0-.643.531,1.155,1.155,0,0,0-.192.666,1.114,1.114,0,0,0,.26.768.848.848,0,0,0,.666.294,2.258,2.258,0,0,0,.858-.294q.925-.361,1.6-.553a4.871,4.871,0,0,1,1.332-.192,2.017,2.017,0,0,1,1.535.508,2.313,2.313,0,0,1,.474,1.615v.519h-.564a18.379,18.379,0,0,0-3.86.316,3.732,3.732,0,0,0-2.02,1.016,2.789,2.789,0,0,0-.621,1.919,3.133,3.133,0,0,0,.519,1.761,3.566,3.566,0,0,0,1.422,1.242,4.426,4.426,0,0,0,2.009.451,3.622,3.622,0,0,0,1.907-.5,2.947,2.947,0,0,0,1.208-1.377v.5a1.261,1.261,0,0,0,.373.948,1.319,1.319,0,0,0,.96.361,1.368,1.368,0,0,0,.993-.35,1.276,1.276,0,0,0,.361-.96v-5.509a4.772,4.772,0,0,0-1.118-3.465,4.6,4.6,0,0,0-3.42-1.14m1.851,6.75a2.736,2.736,0,0,1-.711,1.953,2.41,2.41,0,0,1-1.84.756,1.791,1.791,0,0,1-1.253-.462,1.532,1.532,0,0,1-.508-1.186,1.208,1.208,0,0,1,.361-.925,2.275,2.275,0,0,1,1.2-.474,15.581,15.581,0,0,1,2.347-.135h.406Z" transform="translate(-118.667 -299.935)" fill="#ff6a13"/>
  <path id="Path_908" data-name="Path 908" d="M223.915,413.708a4.282,4.282,0,0,0-2.19.564,3.735,3.735,0,0,0-1.467,1.513,3.235,3.235,0,0,0-3.319-2.077,4.1,4.1,0,0,0-2,.474,3.537,3.537,0,0,0-1.388,1.377v-.542a1.181,1.181,0,0,0-.373-.937,1.4,1.4,0,0,0-.96-.327,1.532,1.532,0,0,0-1.016.339,1.192,1.192,0,0,0-.406.97V423.8a1.27,1.27,0,0,0,.395,1,1.46,1.46,0,0,0,1,.35,1.5,1.5,0,0,0,1.016-.35,1.252,1.252,0,0,0,.406-1v-5.034a3.087,3.087,0,0,1,.643-2.065,2.178,2.178,0,0,1,1.75-.757,1.648,1.648,0,0,1,1.343.53,2.794,2.794,0,0,1,.44,1.772V423.8a1.252,1.252,0,0,0,.406,1,1.5,1.5,0,0,0,1.016.35,1.46,1.46,0,0,0,1-.35,1.271,1.271,0,0,0,.395-1v-5.034a3.05,3.05,0,0,1,.655-2.065,2.211,2.211,0,0,1,1.761-.757,1.647,1.647,0,0,1,1.343.53,2.794,2.794,0,0,1,.44,1.772V423.8a1.269,1.269,0,0,0,.4,1,1.458,1.458,0,0,0,1,.35,1.492,1.492,0,0,0,1.027-.35,1.271,1.271,0,0,0,.4-1v-5.554a5.127,5.127,0,0,0-.96-3.465,3.52,3.52,0,0,0-2.765-1.072" transform="translate(-152.827 -299.935)" fill="#ff6a13"/>
  <path id="Path_909" data-name="Path 909" d="M290.088,414.408a6.646,6.646,0,0,0-5.937,0,4.858,4.858,0,0,0-1.975,2,6.3,6.3,0,0,0-.7,3.036,6.368,6.368,0,0,0,.7,3.048,4.842,4.842,0,0,0,1.975,2.009,6.648,6.648,0,0,0,5.937,0,4.776,4.776,0,0,0,1.964-2.009,6.455,6.455,0,0,0,.688-3.048,6.391,6.391,0,0,0-.688-3.036,4.791,4.791,0,0,0-1.964-2m-.892,7.7a2.53,2.53,0,0,1-2.1.9,2.5,2.5,0,0,1-2.077-.9,5.217,5.217,0,0,1,.011-5.316,2.523,2.523,0,0,1,2.088-.914,2.492,2.492,0,0,1,2.077.914,5.253,5.253,0,0,1,0,5.316" transform="translate(-204.067 -299.935)" fill="#ff6a13"/>
  <path id="Path_910" data-name="Path 910" d="M337.345,419.239a10.952,10.952,0,0,0-2.37-.722,7.1,7.1,0,0,1-1.919-.587.939.939,0,0,1-.5-.858,1.07,1.07,0,0,1,.485-.925,2.273,2.273,0,0,1,1.321-.339,3.531,3.531,0,0,1,1.174.169,9.41,9.41,0,0,1,1.129.508,6.468,6.468,0,0,0,.6.3,1.222,1.222,0,0,0,.485.1.76.76,0,0,0,.61-.3,1.161,1.161,0,0,0,.248-.757,1.363,1.363,0,0,0-.723-1.2,5.563,5.563,0,0,0-1.58-.688,7.01,7.01,0,0,0-1.829-.237,5.88,5.88,0,0,0-2.336.44,3.8,3.8,0,0,0-1.614,1.242,2.962,2.962,0,0,0-.587,1.795,2.562,2.562,0,0,0,.869,2.054,6.462,6.462,0,0,0,2.878,1.151,16.224,16.224,0,0,1,1.682.44,1.974,1.974,0,0,1,.767.418.848.848,0,0,1,.215.609.978.978,0,0,1-.53.88,2.9,2.9,0,0,1-1.479.316,5.384,5.384,0,0,1-1.524-.18,9.8,9.8,0,0,1-1.321-.52,2.5,2.5,0,0,0-1.061-.361.78.78,0,0,0-.609.283,1.069,1.069,0,0,0-.248.733,1.346,1.346,0,0,0,.722,1.219,7.256,7.256,0,0,0,3.973.97,5.664,5.664,0,0,0,3.4-.925,2.9,2.9,0,0,0,1.275-2.461,2.952,2.952,0,0,0-.372-1.558,2.777,2.777,0,0,0-1.231-1.016" transform="translate(-238.942 -299.935)" fill="#ff6a13"/>
  <path id="Path_911" data-name="Path 911" d="M405.526,414.43a4.576,4.576,0,0,0-2.54-.722,4.4,4.4,0,0,0-2.133.508,3.46,3.46,0,0,0-1.434,1.434v-.565a1.271,1.271,0,0,0-.384-.97,1.426,1.426,0,0,0-1.016-.361,1.383,1.383,0,0,0-1,.361,1.289,1.289,0,0,0-.372.97v12.8a1.222,1.222,0,0,0,.395.948,1.461,1.461,0,0,0,1.027.361,1.482,1.482,0,0,0,1.016-.338,1.173,1.173,0,0,0,.384-.926v-4.605a3.479,3.479,0,0,0,1.422,1.377,4.365,4.365,0,0,0,2.1.5,4.555,4.555,0,0,0,4.278-2.686,6.837,6.837,0,0,0,.621-3,7.061,7.061,0,0,0-.621-3.036,4.789,4.789,0,0,0-1.738-2.043m-1.208,7.664a2.818,2.818,0,0,1-4.165-.011,5.082,5.082,0,0,1,0-5.26,2.783,2.783,0,0,1,4.165.023,4.218,4.218,0,0,1,.745,2.664,3.99,3.99,0,0,1-.745,2.585" transform="translate(-287.563 -299.935)" fill="#ff6a13"/>
  <path id="Path_912" data-name="Path 912" d="M451.686,413.708a9.7,9.7,0,0,0-2.156.249,7.371,7.371,0,0,0-1.885.677,1.82,1.82,0,0,0-.643.531,1.157,1.157,0,0,0-.192.666,1.113,1.113,0,0,0,.26.768.847.847,0,0,0,.666.294,2.26,2.26,0,0,0,.858-.294q.925-.361,1.6-.553a4.872,4.872,0,0,1,1.332-.192,2.017,2.017,0,0,1,1.535.508,2.312,2.312,0,0,1,.474,1.615v.519h-.564a18.379,18.379,0,0,0-3.861.316,3.728,3.728,0,0,0-2.02,1.016,2.788,2.788,0,0,0-.621,1.919,3.135,3.135,0,0,0,.519,1.761,3.567,3.567,0,0,0,1.422,1.242,4.427,4.427,0,0,0,2.009.451,3.624,3.624,0,0,0,1.908-.5,2.947,2.947,0,0,0,1.208-1.377v.5a1.261,1.261,0,0,0,.373.948,1.319,1.319,0,0,0,.959.361,1.368,1.368,0,0,0,.994-.35,1.276,1.276,0,0,0,.361-.96v-5.509a4.772,4.772,0,0,0-1.118-3.465,4.6,4.6,0,0,0-3.419-1.14m1.851,6.75a2.736,2.736,0,0,1-.711,1.953,2.41,2.41,0,0,1-1.84.756,1.792,1.792,0,0,1-1.253-.462,1.531,1.531,0,0,1-.508-1.186,1.208,1.208,0,0,1,.361-.925,2.277,2.277,0,0,1,1.2-.474,15.585,15.585,0,0,1,2.348-.135h.406Z" transform="translate(-323.687 -299.935)" fill="#ff6a13"/>
  <path id="Path_913" data-name="Path 913" d="M499.632,419.239a10.96,10.96,0,0,0-2.371-.722,7.1,7.1,0,0,1-1.918-.587.938.938,0,0,1-.5-.858,1.07,1.07,0,0,1,.485-.925,2.273,2.273,0,0,1,1.321-.339,3.535,3.535,0,0,1,1.174.169,9.422,9.422,0,0,1,1.128.508,6.574,6.574,0,0,0,.6.3,1.225,1.225,0,0,0,.486.1.76.76,0,0,0,.61-.3,1.161,1.161,0,0,0,.248-.757,1.364,1.364,0,0,0-.722-1.2,5.575,5.575,0,0,0-1.58-.688,7.012,7.012,0,0,0-1.829-.237,5.88,5.88,0,0,0-2.336.44,3.8,3.8,0,0,0-1.614,1.242,2.963,2.963,0,0,0-.587,1.795,2.563,2.563,0,0,0,.869,2.054,6.462,6.462,0,0,0,2.879,1.151,16.225,16.225,0,0,1,1.682.44,1.979,1.979,0,0,1,.768.418.849.849,0,0,1,.215.609.979.979,0,0,1-.53.88,2.9,2.9,0,0,1-1.479.316,5.387,5.387,0,0,1-1.524-.18,9.81,9.81,0,0,1-1.32-.52,2.5,2.5,0,0,0-1.061-.361.78.78,0,0,0-.609.283,1.069,1.069,0,0,0-.249.733,1.346,1.346,0,0,0,.722,1.219,7.255,7.255,0,0,0,3.973.97,5.662,5.662,0,0,0,3.4-.925,2.9,2.9,0,0,0,1.275-2.461,2.952,2.952,0,0,0-.372-1.558,2.777,2.777,0,0,0-1.231-1.016" transform="translate(-356.598 -299.935)" fill="#ff6a13"/>
  <path id="Path_914" data-name="Path 914" d="M536.96,395.649a1.754,1.754,0,0,0-1.219.406,1.384,1.384,0,0,0-.451,1.083,1.422,1.422,0,0,0,.451,1.1,1.989,1.989,0,0,0,2.438,0,1.422,1.422,0,0,0,.451-1.1,1.37,1.37,0,0,0-.462-1.083,1.764,1.764,0,0,0-1.208-.406" transform="translate(-388.08 -286.842)" fill="#ff6a13"/>
  <path id="Path_915" data-name="Path 915" d="M537.675,413.872a1.487,1.487,0,0,0-1,.339,1.235,1.235,0,0,0-.395.993v8.714a1.27,1.27,0,0,0,.395,1,1.459,1.459,0,0,0,1,.35,1.5,1.5,0,0,0,1.016-.35,1.253,1.253,0,0,0,.406-1V415.2a1.219,1.219,0,0,0-.406-.993,1.533,1.533,0,0,0-1.016-.339" transform="translate(-388.794 -300.053)" fill="#ff6a13"/>
  <path id="Path_916" data-name="Path 916" d="M578.585,392.364a1.494,1.494,0,0,0-1.2.677l-2.19,2.912a.843.843,0,0,0-.181.5.693.693,0,0,0,.215.507.719.719,0,0,0,.53.215.84.84,0,0,0,.5-.18l2.912-2.37a1.32,1.32,0,0,0,.609-1.084,1.129,1.129,0,0,0-.35-.824,1.153,1.153,0,0,0-.847-.35" transform="translate(-416.883 -284.46)" fill="#ff6a13"/>
  <path id="Path_917" data-name="Path 917" d="M565.571,414.408a6.646,6.646,0,0,0-5.937,0,4.858,4.858,0,0,0-1.975,2,6.3,6.3,0,0,0-.7,3.036,6.364,6.364,0,0,0,.7,3.048,4.842,4.842,0,0,0,1.975,2.009,6.648,6.648,0,0,0,5.937,0,4.776,4.776,0,0,0,1.964-2.009,6.456,6.456,0,0,0,.688-3.048,6.392,6.392,0,0,0-.688-3.036,4.791,4.791,0,0,0-1.964-2m-.892,7.7a2.529,2.529,0,0,1-2.1.9,2.5,2.5,0,0,1-2.077-.9,5.217,5.217,0,0,1,.011-5.316,2.524,2.524,0,0,1,2.088-.914,2.491,2.491,0,0,1,2.077.914,5.252,5.252,0,0,1,0,5.316" transform="translate(-403.79 -299.935)" fill="#ff6a13"/>
  <path id="Path_918" data-name="Path 918" d="M614.842,413.708a4.557,4.557,0,0,0-2.145.5,3.818,3.818,0,0,0-1.513,1.422v-.61a1.2,1.2,0,0,0-.372-.914,1.345,1.345,0,0,0-.96-.35,1.453,1.453,0,0,0-1.038.361,1.239,1.239,0,0,0-.384.948V423.8a1.318,1.318,0,0,0,.372.993,1.412,1.412,0,0,0,1.027.361,1.453,1.453,0,0,0,1.039-.361,1.3,1.3,0,0,0,.384-.993v-5.034a2.851,2.851,0,0,1,.733-2.054,2.578,2.578,0,0,1,1.953-.768,1.866,1.866,0,0,1,1.524.587,2.929,2.929,0,0,1,.485,1.874v5.4a1.3,1.3,0,0,0,.384.993,1.452,1.452,0,0,0,1.038.361,1.412,1.412,0,0,0,1.027-.361,1.319,1.319,0,0,0,.372-.993v-5.554a5.12,5.12,0,0,0-.971-3.408,3.69,3.69,0,0,0-2.957-1.129" transform="translate(-441.107 -299.935)" fill="#ff6a13"/>
  <rect id="Rectangle_1568" data-name="Rectangle 1568" width="187" height="129.26" fill="none"/>
</svg>
